<svg width="97" height="95" viewBox="0 0 97 95" fill="none" xmlns="http://www.w3.org/2000/svg">
<path fill-rule="evenodd" clip-rule="evenodd" d="M48.5 94.5C75.0097 94.5 96.5 73.4574 96.5 47.5C96.5 21.5426 75.0097 0.5 48.5 0.5C21.9903 0.5 0.5 21.5426 0.5 47.5C0.5 73.4574 21.9903 94.5 48.5 94.5Z" fill="#BABABA"/>
<path fill-rule="evenodd" clip-rule="evenodd" d="M60.3118 35.4325C60.3118 41.7465 55.0129 46.8648 48.4762 46.8648C41.9396 46.8648 36.6406 41.7465 36.6406 35.4325C36.6406 29.1185 41.9396 24 48.4762 24C55.0129 24 60.3118 29.1185 60.3118 35.4325ZM27.0243 73.3023C27.0243 61.8583 36.6286 52.5812 48.4762 52.5812C60.3238 52.5812 69.9284 61.8583 69.9284 73.3023H27.0243Z" fill="#151515"/>
</svg>
